<?xml version="1.0" encoding="UTF-8"?>
<!DOCTYPE svg PUBLIC "-//W3C//DTD SVG 1.1//EN" "http://www.w3.org/Graphics/SVG/1.1/DTD/svg11.dtd">
<!-- Creator: CorelDRAW X6 -->
<svg xmlns="http://www.w3.org/2000/svg" xml:space="preserve" width="11.6929in" height="16.5354in" version="1.1" style="shape-rendering:geometricPrecision; text-rendering:geometricPrecision; image-rendering:optimizeQuality; fill-rule:evenodd; clip-rule:evenodd"
viewBox="0 0 11693 16535"
 xmlns:xlink="http://www.w3.org/1999/xlink">
 <defs>
  <style type="text/css">
   <![CDATA[
    .str1 {stroke:#B2B3B3;stroke-width:3}
    .str0 {stroke:#295E95;stroke-width:39.3701}
    .fil2 {fill:#B2B3B3}
    .fil3 {fill:#295E95}
    .fil1 {fill:#B2B3B3;fill-rule:nonzero}
    .fil0 {fill:#295E95;fill-rule:nonzero}
   ]]>
  </style>
 </defs>
 <g id="Warstwa_x0020_1">
  <metadata id="CorelCorpID_0Corel-Layer"/>
  <g id="_158804560">
   <path class="fil0 str0" d="M2996 7445c-28,0 -49,9 -65,27 -14,16 -21,36 -21,60l0 562c0,9 3,16 8,22 5,5 12,7 20,7 7,0 13,-2 19,-7 6,-5 9,-13 9,-22l0 -303 309 0c9,0 16,-3 22,-8 5,-5 7,-10 7,-17 0,-7 -2,-12 -7,-17 -5,-5 -13,-7 -22,-7l-309 0 0 -205c0,-12 3,-21 9,-28 7,-8 17,-13 31,-13l303 0c9,0 16,-3 22,-8 5,-5 7,-10 7,-17 0,-7 -2,-13 -7,-18 -5,-5 -13,-7 -22,-7l-313 0z"/>
   <path class="fil0 str0" d="M3475 7635l0 458c0,9 3,16 8,22 5,5 12,7 20,7 8,0 14,-3 20,-8 6,-5 9,-13 9,-22l0 -458c0,-8 -3,-15 -9,-20 -5,-4 -12,-6 -20,-6 -8,0 -14,2 -20,7 -5,4 -8,10 -8,19zm28 -205c-14,0 -26,5 -33,14 -7,9 -11,20 -11,33 0,13 4,23 11,31 8,10 19,14 33,14 14,0 25,-5 33,-14 8,-9 12,-20 12,-31 0,-13 -4,-24 -12,-33 -8,-10 -20,-14 -33,-14z"/>
   <path class="fil0 str0" d="M4125 7461c0,-10 -3,-17 -9,-22 -5,-5 -12,-7 -19,-7 -8,0 -14,2 -20,6 -5,5 -8,13 -8,22l0 234c-19,-28 -41,-49 -67,-62 -25,-13 -55,-20 -89,-20 -69,0 -123,26 -161,79 -34,47 -51,106 -51,177 0,71 17,130 51,176 38,53 92,80 161,80 36,0 69,-8 98,-24 25,-14 44,-32 58,-53l0 39c0,8 3,15 8,21 5,5 12,8 19,8 8,0 14,-2 19,-6 6,-5 9,-13 10,-23l0 -625zm-212 200c50,0 90,21 118,64 25,38 38,86 38,143 0,57 -13,104 -38,142 -28,43 -68,64 -118,64 -51,0 -91,-21 -119,-64 -25,-38 -37,-85 -37,-142 0,-58 12,-105 37,-143 28,-43 68,-64 119,-64z"/>
   <path class="fil0 str0" d="M4605 7971c-14,31 -31,55 -49,70 -24,21 -54,31 -90,31 -46,0 -82,-21 -109,-62 -23,-35 -36,-78 -39,-129l354 0 0 -14c0,-70 -17,-130 -52,-178 -38,-53 -90,-79 -154,-79 -64,0 -115,26 -153,79 -34,49 -51,108 -51,178 0,70 17,128 51,176 38,53 89,79 153,79 46,0 85,-12 119,-35 33,-22 58,-54 76,-96 4,-9 4,-18 0,-25 -3,-7 -8,-11 -15,-14 -8,-3 -15,-3 -22,-1 -8,4 -14,10 -17,19zm-285 -139c4,-44 16,-82 39,-113 27,-39 63,-59 107,-59 44,0 80,20 108,59 22,32 35,70 39,112l-292 0z"/>
   <path class="fil0" d="M5182 7600c-108,0 -195,24 -261,72 -70,50 -106,120 -106,209 0,82 29,148 88,197 53,47 139,85 257,116 130,32 220,67 267,106 40,31 60,73 60,128 0,59 -23,105 -70,140 -49,38 -117,58 -204,58 -104,0 -179,-19 -226,-58 -44,-36 -66,-88 -66,-158 -1,-18 -9,-33 -22,-42 -12,-9 -27,-13 -44,-12 -17,0 -31,5 -42,16 -13,12 -19,27 -18,46 4,103 41,183 112,237 70,54 172,82 303,82 132,0 233,-31 303,-92 65,-55 98,-126 98,-215 0,-89 -27,-159 -82,-209 -57,-54 -156,-98 -295,-130 -114,-29 -193,-61 -235,-94 -40,-32 -60,-75 -60,-130 0,-47 22,-85 68,-116 45,-28 102,-42 169,-42 89,0 156,17 201,50 43,31 66,75 72,134 1,19 9,33 24,44 13,9 29,13 46,12 19,-3 34,-9 46,-20 13,-13 19,-29 18,-48 -7,-81 -39,-146 -98,-195 -69,-57 -171,-86 -305,-86z"/>
   <path class="fil1 str1" d="M5725 8801c0,10 3,19 8,25 5,5 12,8 20,8 7,1 13,-2 19,-7 6,-6 9,-14 9,-23l0 -160c13,21 31,38 57,52 29,16 63,24 100,24 69,0 122,-27 160,-80 35,-47 52,-107 52,-177 0,-71 -17,-130 -52,-177 -38,-53 -92,-79 -160,-79 -35,0 -65,7 -91,20 -26,14 -48,35 -66,62l0 -44c0,-9 -3,-16 -9,-22 -5,-5 -12,-7 -19,-7 -8,0 -14,2 -20,7 -5,5 -8,13 -8,22l0 556zm212 -545c51,0 90,21 118,64 25,38 38,85 38,143 0,57 -13,104 -38,142 -28,43 -67,64 -118,64 -51,0 -91,-21 -120,-64 -25,-38 -37,-85 -37,-142 0,-58 12,-105 37,-143 28,-43 68,-64 120,-64zm666 311c-14,31 -31,55 -49,70 -24,21 -54,31 -90,31 -46,0 -82,-21 -109,-62 -23,-35 -36,-78 -39,-129l354 0 0 -14c0,-70 -17,-130 -52,-178 -38,-53 -90,-79 -154,-79 -64,0 -115,26 -153,79 -34,49 -51,108 -51,178 0,70 17,128 51,176 38,53 89,79 153,79 46,0 85,-12 119,-35 33,-22 58,-54 76,-96 4,-9 4,-18 0,-25 -3,-7 -8,-11 -15,-14 -8,-3 -15,-3 -22,-1 -8,4 -14,10 -17,19zm-285 -139c4,-44 16,-82 39,-113 27,-39 63,-59 107,-59 44,0 80,20 108,59 22,32 35,70 39,112l-292 0zm891 -370c0,-10 -3,-17 -9,-22 -5,-5 -12,-7 -19,-7 -8,0 -14,2 -20,6 -5,5 -8,13 -8,22l0 234c-19,-28 -41,-49 -67,-62 -25,-13 -55,-20 -89,-20 -69,0 -123,26 -161,79 -34,47 -51,106 -51,177 0,71 17,130 51,176 38,53 92,80 161,80 36,0 69,-8 98,-24 25,-14 44,-32 58,-53l0 39c0,8 3,15 8,21 5,5 12,8 19,8 8,0 14,-2 19,-6 6,-5 9,-13 10,-23l0 -625zm-212 200c50,0 90,21 118,64 25,38 38,86 38,143 0,57 -13,104 -38,142 -28,43 -68,64 -118,64 -51,0 -91,-21 -119,-64 -25,-38 -37,-85 -37,-142 0,-58 12,-105 37,-143 28,-43 68,-64 119,-64zm310 -13l168 425 -31 67c-8,18 -16,30 -22,37 -8,8 -18,12 -32,12l-40 0c-9,0 -16,2 -21,7 -4,5 -6,10 -6,17 0,7 2,12 6,17 5,5 12,8 21,8l40 0c25,0 46,-8 65,-23 19,-15 36,-38 50,-68l203 -505c3,-7 2,-14 -2,-20 -4,-5 -10,-9 -18,-11 -8,-2 -15,-2 -22,1 -8,2 -14,8 -16,15l-144 373 -146 -375c-3,-8 -8,-13 -15,-14 -7,-2 -14,-1 -22,3 -7,3 -13,7 -16,13 -4,7 -4,14 0,22zm716 -38c53,0 97,13 132,38 29,22 49,48 58,80 2,8 0,15 -4,21 -4,6 -10,10 -18,12 -8,2 -16,1 -23,-2 -8,-4 -13,-10 -14,-18 -9,-28 -24,-49 -46,-62 -22,-13 -51,-19 -89,-19 -51,0 -90,21 -118,64 -25,37 -37,85 -37,143 0,59 12,108 37,145 27,41 66,61 118,61 43,0 75,-7 97,-20 22,-13 39,-35 49,-67 2,-8 8,-14 16,-18 7,-3 15,-4 23,-2 8,2 14,6 18,12 4,6 4,14 1,23 -18,38 -40,66 -66,85 -34,25 -79,37 -135,37 -73,0 -128,-26 -166,-77 -33,-45 -49,-104 -49,-178 0,-71 17,-131 51,-178 39,-53 94,-79 164,-79zm336 26l0 494c0,15 -5,28 -14,40 -10,12 -20,18 -31,17l-11 0c-8,1 -15,3 -20,5 -4,6 -6,12 -7,18 1,7 4,13 7,18 5,6 11,9 20,9l14 0c26,0 49,-12 69,-36 19,-22 29,-49 29,-79l0 -487c0,-8 -3,-15 -9,-20 -5,-4 -12,-6 -20,-6 -8,0 -14,2 -20,7 -5,5 -8,11 -8,20zm29 -206c-14,0 -26,5 -33,14 -7,9 -11,20 -11,33 0,13 4,23 11,31 8,10 19,14 33,14 14,0 25,-5 33,-14 8,-9 12,-20 12,-31 0,-13 -4,-24 -12,-33 -8,-10 -20,-14 -33,-14zm491 562c-14,25 -34,44 -60,58 -29,16 -65,23 -106,23 -37,0 -64,-8 -81,-23 -17,-14 -25,-36 -25,-66 0,-31 9,-54 27,-69 19,-17 50,-28 95,-34 45,-6 80,-13 106,-21 21,-7 36,-14 44,-21l0 153zm-123 -382c-50,0 -91,11 -122,33 -31,23 -50,58 -58,104 -2,9 0,16 5,22 5,6 11,8 18,9 8,1 14,-1 20,-5 7,-4 10,-10 12,-18 3,-30 14,-53 31,-68 20,-18 51,-27 92,-27 42,0 74,8 95,23 20,15 30,37 30,67 0,26 -9,43 -27,53 -19,10 -60,20 -124,29 -73,9 -123,29 -150,60 -19,22 -28,52 -28,92 0,44 14,78 40,102 28,25 68,38 122,38 40,0 75,-7 106,-21 23,-10 43,-24 61,-41 0,19 5,32 16,40 13,8 37,13 71,13 8,0 15,-3 20,-8 4,-5 6,-10 6,-17 -1,-7 -3,-13 -7,-18 -5,-5 -11,-7 -18,-7 -11,0 -19,-3 -25,-9 -5,-5 -8,-13 -8,-23l0 -285c0,-47 -17,-82 -52,-105 -31,-20 -73,-30 -127,-30z"/>
   <polygon class="fil2" points="3176,8553 3176,8453 4598,8453 4598,8370 2855,8370 "/>
   <polygon class="fil3" points="8673,7707 8673,7808 5765,7808 5765,7891 8994,7891 "/>
  </g>
 </g>
</svg>
