<svg xmlns="http://www.w3.org/2000/svg" xmlns:xlink="http://www.w3.org/1999/xlink" xml:space="preserve" width="6521.572001019238" height="1792.14448909352" version="1.1" style="shape-rendering:geometricPrecision; text-rendering:geometricPrecision; image-rendering:optimizeQuality; fill-rule:evenodd; clip-rule:evenodd"><rect id="backgroundrect" width="100%" height="100%" x="0" y="0" fill="none" stroke="none" class="selected"/>
 <defs>
  <style type="text/css">
   <![CDATA[
    .str1 {stroke:#B2B3B3;stroke-width:3}
    .str0 {stroke:#295E95;stroke-width:39.3701}
    .fil2 {fill:#B2B3B3}
    .fil3 {fill:#295E95}
    .fil1 {fill:#B2B3B3;fill-rule:nonzero}
    .fil0 {fill:#295E95;fill-rule:nonzero}
   ]]>
  </style>
 </defs>
 
<g class="currentLayer"><title>Layer 1</title><g id="Warstwa_x0020_1" class="">
  <metadata id="CorelCorpID_0Corel-Layer" transform="translate(-2699.999755859375,-7228.57080078125) "/>
  <g id="_158804560">
   <path class="fil0 str0" d="M296.000244140625,216.42919921875 c-28,0 -49,9 -65,27 c-14,16 -21,36 -21,60 l0,562 c0,9 3,16 8,22 c5,5 12,7 20,7 c7,0 13,-2 19,-7 c6,-5 9,-13 9,-22 l0,-303 l309,0 c9,0 16,-3 22,-8 c5,-5 7,-10 7,-17 c0,-7 -2,-12 -7,-17 c-5,-5 -13,-7 -22,-7 l-309,0 l0,-205 c0,-12 3,-21 9,-28 c7,-8 17,-13 31,-13 l303,0 c9,0 16,-3 22,-8 c5,-5 7,-10 7,-17 c0,-7 -2,-13 -7,-18 c-5,-5 -13,-7 -22,-7 l-313,0 z" id="svg_1"/>
   <path class="fil0 str0" d="M775.000244140625,406.42919921875 l0,458 c0,9 3,16 8,22 c5,5 12,7 20,7 c8,0 14,-3 20,-8 c6,-5 9,-13 9,-22 l0,-458 c0,-8 -3,-15 -9,-20 c-5,-4 -12,-6 -20,-6 c-8,0 -14,2 -20,7 c-5,4 -8,10 -8,19 zm28,-205 c-14,0 -26,5 -33,14 c-7,9 -11,20 -11,33 c0,13 4,23 11,31 c8,10 19,14 33,14 c14,0 25,-5 33,-14 c8,-9 12,-20 12,-31 c0,-13 -4,-24 -12,-33 c-8,-10 -20,-14 -33,-14 z" id="svg_2"/>
   <path class="fil0 str0" d="M1425.000244140625,232.42919921875 c0,-10 -3,-17 -9,-22 c-5,-5 -12,-7 -19,-7 c-8,0 -14,2 -20,6 c-5,5 -8,13 -8,22 l0,234 c-19,-28 -41,-49 -67,-62 c-25,-13 -55,-20 -89,-20 c-69,0 -123,26 -161,79 c-34,47 -51,106 -51,177 c0,71 17,130 51,176 c38,53 92,80 161,80 c36,0 69,-8 98,-24 c25,-14 44,-32 58,-53 l0,39 c0,8 3,15 8,21 c5,5 12,8 19,8 c8,0 14,-2 19,-6 c6,-5 9,-13 10,-23 l0,-625 zm-212,200 c50,0 90,21 118,64 c25,38 38,86 38,143 c0,57 -13,104 -38,142 c-28,43 -68,64 -118,64 c-51,0 -91,-21 -119,-64 c-25,-38 -37,-85 -37,-142 c0,-58 12,-105 37,-143 c28,-43 68,-64 119,-64 z" id="svg_3"/>
   <path class="fil0 str0" d="M1905.000244140625,742.42919921875 c-14,31 -31,55 -49,70 c-24,21 -54,31 -90,31 c-46,0 -82,-21 -109,-62 c-23,-35 -36,-78 -39,-129 l354,0 l0,-14 c0,-70 -17,-130 -52,-178 c-38,-53 -90,-79 -154,-79 c-64,0 -115,26 -153,79 c-34,49 -51,108 -51,178 c0,70 17,128 51,176 c38,53 89,79 153,79 c46,0 85,-12 119,-35 c33,-22 58,-54 76,-96 c4,-9 4,-18 0,-25 c-3,-7 -8,-11 -15,-14 c-8,-3 -15,-3 -22,-1 c-8,4 -14,10 -17,19 zm-285,-139 c4,-44 16,-82 39,-113 c27,-39 63,-59 107,-59 c44,0 80,20 108,59 c22,32 35,70 39,112 l-292,0 z" id="svg_4"/>
   <path class="fil0" d="M2482.000244140625,371.42919921875 c-108,0 -195,24 -261,72 c-70,50 -106,120 -106,209 c0,82 29,148 88,197 c53,47 139,85 257,116 c130,32 220,67 267,106 c40,31 60,73 60,128 c0,59 -23,105 -70,140 c-49,38 -117,58 -204,58 c-104,0 -179,-19 -226,-58 c-44,-36 -66,-88 -66,-158 c-1,-18 -9,-33 -22,-42 c-12,-9 -27,-13 -44,-12 c-17,0 -31,5 -42,16 c-13,12 -19,27 -18,46 c4,103 41,183 112,237 c70,54 172,82 303,82 c132,0 233,-31 303,-92 c65,-55 98,-126 98,-215 c0,-89 -27,-159 -82,-209 c-57,-54 -156,-98 -295,-130 c-114,-29 -193,-61 -235,-94 c-40,-32 -60,-75 -60,-130 c0,-47 22,-85 68,-116 c45,-28 102,-42 169,-42 c89,0 156,17 201,50 c43,31 66,75 72,134 c1,19 9,33 24,44 c13,9 29,13 46,12 c19,-3 34,-9 46,-20 c13,-13 19,-29 18,-48 c-7,-81 -39,-146 -98,-195 c-69,-57 -171,-86 -305,-86 z" id="svg_5"/>
   <path class="fil1 str1" d="M3025.000244140625,1572.42919921875 c0,10 3,19 8,25 c5,5 12,8 20,8 c7,1 13,-2 19,-7 c6,-6 9,-14 9,-23 l0,-160 c13,21 31,38 57,52 c29,16 63,24 100,24 c69,0 122,-27 160,-80 c35,-47 52,-107 52,-177 c0,-71 -17,-130 -52,-177 c-38,-53 -92,-79 -160,-79 c-35,0 -65,7 -91,20 c-26,14 -48,35 -66,62 l0,-44 c0,-9 -3,-16 -9,-22 c-5,-5 -12,-7 -19,-7 c-8,0 -14,2 -20,7 c-5,5 -8,13 -8,22 l0,556 zm212,-545 c51,0 90,21 118,64 c25,38 38,85 38,143 c0,57 -13,104 -38,142 c-28,43 -67,64 -118,64 c-51,0 -91,-21 -120,-64 c-25,-38 -37,-85 -37,-142 c0,-58 12,-105 37,-143 c28,-43 68,-64 120,-64 zm666,311 c-14,31 -31,55 -49,70 c-24,21 -54,31 -90,31 c-46,0 -82,-21 -109,-62 c-23,-35 -36,-78 -39,-129 l354,0 l0,-14 c0,-70 -17,-130 -52,-178 c-38,-53 -90,-79 -154,-79 c-64,0 -115,26 -153,79 c-34,49 -51,108 -51,178 c0,70 17,128 51,176 c38,53 89,79 153,79 c46,0 85,-12 119,-35 c33,-22 58,-54 76,-96 c4,-9 4,-18 0,-25 c-3,-7 -8,-11 -15,-14 c-8,-3 -15,-3 -22,-1 c-8,4 -14,10 -17,19 zm-285,-139 c4,-44 16,-82 39,-113 c27,-39 63,-59 107,-59 c44,0 80,20 108,59 c22,32 35,70 39,112 l-292,0 zm891,-370 c0,-10 -3,-17 -9,-22 c-5,-5 -12,-7 -19,-7 c-8,0 -14,2 -20,6 c-5,5 -8,13 -8,22 l0,234 c-19,-28 -41,-49 -67,-62 c-25,-13 -55,-20 -89,-20 c-69,0 -123,26 -161,79 c-34,47 -51,106 -51,177 c0,71 17,130 51,176 c38,53 92,80 161,80 c36,0 69,-8 98,-24 c25,-14 44,-32 58,-53 l0,39 c0,8 3,15 8,21 c5,5 12,8 19,8 c8,0 14,-2 19,-6 c6,-5 9,-13 10,-23 l0,-625 zm-212,200 c50,0 90,21 118,64 c25,38 38,86 38,143 c0,57 -13,104 -38,142 c-28,43 -68,64 -118,64 c-51,0 -91,-21 -119,-64 c-25,-38 -37,-85 -37,-142 c0,-58 12,-105 37,-143 c28,-43 68,-64 119,-64 zm310,-13 l168,425 l-31,67 c-8,18 -16,30 -22,37 c-8,8 -18,12 -32,12 l-40,0 c-9,0 -16,2 -21,7 c-4,5 -6,10 -6,17 c0,7 2,12 6,17 c5,5 12,8 21,8 l40,0 c25,0 46,-8 65,-23 c19,-15 36,-38 50,-68 l203,-505 c3,-7 2,-14 -2,-20 c-4,-5 -10,-9 -18,-11 c-8,-2 -15,-2 -22,1 c-8,2 -14,8 -16,15 l-144,373 l-146,-375 c-3,-8 -8,-13 -15,-14 c-7,-2 -14,-1 -22,3 c-7,3 -13,7 -16,13 c-4,7 -4,14 0,22 zm716,-38 c53,0 97,13 132,38 c29,22 49,48 58,80 c2,8 0,15 -4,21 c-4,6 -10,10 -18,12 c-8,2 -16,1 -23,-2 c-8,-4 -13,-10 -14,-18 c-9,-28 -24,-49 -46,-62 c-22,-13 -51,-19 -89,-19 c-51,0 -90,21 -118,64 c-25,37 -37,85 -37,143 c0,59 12,108 37,145 c27,41 66,61 118,61 c43,0 75,-7 97,-20 c22,-13 39,-35 49,-67 c2,-8 8,-14 16,-18 c7,-3 15,-4 23,-2 c8,2 14,6 18,12 c4,6 4,14 1,23 c-18,38 -40,66 -66,85 c-34,25 -79,37 -135,37 c-73,0 -128,-26 -166,-77 c-33,-45 -49,-104 -49,-178 c0,-71 17,-131 51,-178 c39,-53 94,-79 164,-79 zm336,26 l0,494 c0,15 -5,28 -14,40 c-10,12 -20,18 -31,17 l-11,0 c-8,1 -15,3 -20,5 c-4,6 -6,12 -7,18 c1,7 4,13 7,18 c5,6 11,9 20,9 l14,0 c26,0 49,-12 69,-36 c19,-22 29,-49 29,-79 l0,-487 c0,-8 -3,-15 -9,-20 c-5,-4 -12,-6 -20,-6 c-8,0 -14,2 -20,7 c-5,5 -8,11 -8,20 zm29,-206 c-14,0 -26,5 -33,14 c-7,9 -11,20 -11,33 c0,13 4,23 11,31 c8,10 19,14 33,14 c14,0 25,-5 33,-14 c8,-9 12,-20 12,-31 c0,-13 -4,-24 -12,-33 c-8,-10 -20,-14 -33,-14 zm491,562 c-14,25 -34,44 -60,58 c-29,16 -65,23 -106,23 c-37,0 -64,-8 -81,-23 c-17,-14 -25,-36 -25,-66 c0,-31 9,-54 27,-69 c19,-17 50,-28 95,-34 c45,-6 80,-13 106,-21 c21,-7 36,-14 44,-21 l0,153 zm-123,-382 c-50,0 -91,11 -122,33 c-31,23 -50,58 -58,104 c-2,9 0,16 5,22 c5,6 11,8 18,9 c8,1 14,-1 20,-5 c7,-4 10,-10 12,-18 c3,-30 14,-53 31,-68 c20,-18 51,-27 92,-27 c42,0 74,8 95,23 c20,15 30,37 30,67 c0,26 -9,43 -27,53 c-19,10 -60,20 -124,29 c-73,9 -123,29 -150,60 c-19,22 -28,52 -28,92 c0,44 14,78 40,102 c28,25 68,38 122,38 c40,0 75,-7 106,-21 c23,-10 43,-24 61,-41 c0,19 5,32 16,40 c13,8 37,13 71,13 c8,0 15,-3 20,-8 c4,-5 6,-10 6,-17 c-1,-7 -3,-13 -7,-18 c-5,-5 -11,-7 -18,-7 c-11,0 -19,-3 -25,-9 c-5,-5 -8,-13 -8,-23 l0,-285 c0,-47 -17,-82 -52,-105 c-31,-20 -73,-30 -127,-30 z" id="svg_6"/>
   <polygon class="fil2" points="476.000244140625,1324.42919921875 476.000244140625,1224.42919921875 1898.000244140625,1224.42919921875 1898.000244140625,1141.42919921875 155.000244140625,1141.42919921875 " id="svg_7"/>
   <polygon class="fil3" points="5973.000244140625,478.42919921875 5973.000244140625,579.42919921875 3065.000244140625,579.42919921875 3065.000244140625,662.42919921875 6294.000244140625,662.42919921875 " id="svg_8"/>
  </g>
 </g></g></svg>